<mxfile host="app.diagrams.net" modified="2021-04-03T13:44:57.596Z" agent="5.0 (Windows NT 10.0; Win64; x64) AppleWebKit/537.36 (KHTML, like Gecko) Chrome/89.0.4389.114 Safari/537.36" etag="8t8fA1FHQ9pYZ0RJGg6P" version="14.5.6" type="github">
  <diagram name="Page-1" id="03018318-947c-dd8e-b7a3-06fadd420f32">
    <mxGraphModel dx="1303" dy="743" grid="1" gridSize="10" guides="1" tooltips="1" connect="1" arrows="1" fold="1" page="1" pageScale="1" pageWidth="1100" pageHeight="850" background="#ffffff" math="0" shadow="0">
      <root>
        <mxCell id="0" />
        <mxCell id="1" parent="0" />
        <mxCell id="677b7b8949515195-1" value="" style="whiteSpace=wrap;html=1;rounded=0;shadow=0;labelBackgroundColor=none;strokeColor=#000000;strokeWidth=1;fillColor=none;fontFamily=Verdana;fontSize=12;fontColor=#000000;align=center;comic=1;" parent="1" vertex="1">
          <mxGeometry x="20" y="20" width="1080" height="2070" as="geometry" />
        </mxCell>
        <mxCell id="677b7b8949515195-2" value="LOGO" style="whiteSpace=wrap;html=1;rounded=0;shadow=0;labelBackgroundColor=none;strokeWidth=1;fontFamily=Verdana;fontSize=28;align=center;comic=1;" parent="1" vertex="1">
          <mxGeometry x="40" y="60" width="190" height="50" as="geometry" />
        </mxCell>
        <mxCell id="677b7b8949515195-3" value="Search" style="strokeWidth=1;shadow=0;dashed=0;align=center;html=1;shape=mxgraph.mockup.forms.searchBox;strokeColor=#999999;mainText=;strokeColor2=#008cff;fontColor=#666666;fontSize=17;align=left;spacingLeft=3;rounded=0;labelBackgroundColor=none;comic=1;" parent="1" vertex="1">
          <mxGeometry x="340" y="70" width="460" height="30" as="geometry" />
        </mxCell>
        <mxCell id="677b7b8949515195-9" value="" style="line;strokeWidth=1;html=1;rounded=0;shadow=0;labelBackgroundColor=none;fillColor=none;fontFamily=Verdana;fontSize=14;fontColor=#000000;align=center;comic=1;" parent="1" vertex="1">
          <mxGeometry x="20" y="186" width="1060" height="10" as="geometry" />
        </mxCell>
        <mxCell id="677b7b8949515195-10" value="" style="whiteSpace=wrap;html=1;rounded=0;shadow=0;labelBackgroundColor=none;strokeWidth=1;fillColor=none;fontFamily=Verdana;fontSize=12;align=center;comic=1;" parent="1" vertex="1">
          <mxGeometry x="30" y="127" width="1040" height="50" as="geometry" />
        </mxCell>
        <mxCell id="677b7b8949515195-11" value="Griferia" style="text;html=1;points=[];align=left;verticalAlign=top;spacingTop=-4;fontSize=14;fontFamily=Verdana" parent="1" vertex="1">
          <mxGeometry x="330" y="142" width="60" height="20" as="geometry" />
        </mxCell>
        <mxCell id="677b7b8949515195-12" value="Sanitarios" style="text;html=1;points=[];align=left;verticalAlign=top;spacingTop=-4;fontSize=14;fontFamily=Verdana" parent="1" vertex="1">
          <mxGeometry x="477" y="142" width="60" height="20" as="geometry" />
        </mxCell>
        <mxCell id="677b7b8949515195-13" value="Pisos" style="text;html=1;points=[];align=left;verticalAlign=top;spacingTop=-4;fontSize=14;fontFamily=Verdana" parent="1" vertex="1">
          <mxGeometry x="623" y="144" width="60" height="20" as="geometry" />
        </mxCell>
        <mxCell id="677b7b8949515195-14" value="Section 4" style="text;html=1;points=[];align=left;verticalAlign=top;spacingTop=-4;fontSize=14;fontFamily=Verdana" parent="1" vertex="1">
          <mxGeometry x="770" y="142" width="60" height="20" as="geometry" />
        </mxCell>
        <mxCell id="677b7b8949515195-16" value="" style="verticalLabelPosition=bottom;shadow=0;dashed=0;align=center;html=1;verticalAlign=top;strokeWidth=1;shape=mxgraph.mockup.graphics.simpleIcon;strokeColor=#999999;rounded=0;labelBackgroundColor=none;fontFamily=Verdana;fontSize=14;fontColor=#000000;comic=1;" parent="1" vertex="1">
          <mxGeometry x="30" y="206" width="1040" height="360" as="geometry" />
        </mxCell>
        <mxCell id="Z0_54qZpgm8ZiRzPgfmk-1" value="" style="verticalLabelPosition=bottom;shadow=0;dashed=0;align=center;html=1;verticalAlign=top;strokeWidth=1;shape=mxgraph.mockup.misc.shoppingCart;strokeColor=#999999;" vertex="1" parent="1">
          <mxGeometry x="910" y="60" width="50" height="50" as="geometry" />
        </mxCell>
        <mxCell id="Z0_54qZpgm8ZiRzPgfmk-2" value="" style="shape=actor;whiteSpace=wrap;html=1;" vertex="1" parent="1">
          <mxGeometry x="990" y="60" width="40" height="52" as="geometry" />
        </mxCell>
        <mxCell id="Z0_54qZpgm8ZiRzPgfmk-6" value="" style="triangle;whiteSpace=wrap;html=1;" vertex="1" parent="1">
          <mxGeometry x="1010" y="320" width="60" height="80" as="geometry" />
        </mxCell>
        <mxCell id="Z0_54qZpgm8ZiRzPgfmk-7" value="" style="triangle;whiteSpace=wrap;html=1;rotation=-180;" vertex="1" parent="1">
          <mxGeometry x="40" y="320" width="60" height="80" as="geometry" />
        </mxCell>
        <mxCell id="Z0_54qZpgm8ZiRzPgfmk-13" value="" style="group" vertex="1" connectable="0" parent="1">
          <mxGeometry x="465" y="530" width="210" height="20" as="geometry" />
        </mxCell>
        <mxCell id="Z0_54qZpgm8ZiRzPgfmk-8" value="" style="ellipse;shape=doubleEllipse;whiteSpace=wrap;html=1;aspect=fixed;" vertex="1" parent="Z0_54qZpgm8ZiRzPgfmk-13">
          <mxGeometry width="20" height="20" as="geometry" />
        </mxCell>
        <mxCell id="Z0_54qZpgm8ZiRzPgfmk-9" value="" style="ellipse;shape=doubleEllipse;whiteSpace=wrap;html=1;aspect=fixed;" vertex="1" parent="Z0_54qZpgm8ZiRzPgfmk-13">
          <mxGeometry x="190" width="20" height="20" as="geometry" />
        </mxCell>
        <mxCell id="Z0_54qZpgm8ZiRzPgfmk-10" value="" style="ellipse;shape=doubleEllipse;whiteSpace=wrap;html=1;aspect=fixed;" vertex="1" parent="Z0_54qZpgm8ZiRzPgfmk-13">
          <mxGeometry x="95" width="20" height="20" as="geometry" />
        </mxCell>
        <mxCell id="Z0_54qZpgm8ZiRzPgfmk-27" value="" style="verticalLabelPosition=bottom;shadow=0;dashed=0;align=center;html=1;verticalAlign=top;strokeWidth=1;shape=mxgraph.mockup.graphics.simpleIcon;strokeColor=#999999;rounded=0;labelBackgroundColor=none;fontFamily=Verdana;fontSize=14;fontColor=#000000;comic=1;" vertex="1" parent="1">
          <mxGeometry x="70" y="810" width="420" height="196" as="geometry" />
        </mxCell>
        <mxCell id="Z0_54qZpgm8ZiRzPgfmk-28" value="" style="verticalLabelPosition=bottom;shadow=0;dashed=0;align=center;html=1;verticalAlign=top;strokeWidth=1;shape=mxgraph.mockup.graphics.simpleIcon;strokeColor=#999999;rounded=0;labelBackgroundColor=none;fontFamily=Verdana;fontSize=14;fontColor=#000000;comic=1;" vertex="1" parent="1">
          <mxGeometry x="590" y="810" width="420" height="196" as="geometry" />
        </mxCell>
        <mxCell id="Z0_54qZpgm8ZiRzPgfmk-29" value="" style="verticalLabelPosition=bottom;shadow=0;dashed=0;align=center;html=1;verticalAlign=top;strokeWidth=1;shape=mxgraph.mockup.graphics.simpleIcon;strokeColor=#999999;rounded=0;labelBackgroundColor=none;fontFamily=Verdana;fontSize=14;fontColor=#000000;comic=1;" vertex="1" parent="1">
          <mxGeometry x="70" y="1040" width="420" height="196" as="geometry" />
        </mxCell>
        <mxCell id="Z0_54qZpgm8ZiRzPgfmk-30" value="" style="verticalLabelPosition=bottom;shadow=0;dashed=0;align=center;html=1;verticalAlign=top;strokeWidth=1;shape=mxgraph.mockup.graphics.simpleIcon;strokeColor=#999999;rounded=0;labelBackgroundColor=none;fontFamily=Verdana;fontSize=14;fontColor=#000000;comic=1;" vertex="1" parent="1">
          <mxGeometry x="590" y="1040" width="420" height="196" as="geometry" />
        </mxCell>
        <mxCell id="Z0_54qZpgm8ZiRzPgfmk-31" value="Promo1" style="text;html=1;strokeColor=none;fillColor=none;align=center;verticalAlign=middle;whiteSpace=wrap;rounded=0;" vertex="1" parent="1">
          <mxGeometry x="260" y="970" width="40" height="20" as="geometry" />
        </mxCell>
        <mxCell id="Z0_54qZpgm8ZiRzPgfmk-33" value="Promo1" style="text;html=1;strokeColor=none;fillColor=none;align=center;verticalAlign=middle;whiteSpace=wrap;rounded=0;" vertex="1" parent="1">
          <mxGeometry x="780" y="970" width="40" height="20" as="geometry" />
        </mxCell>
        <mxCell id="Z0_54qZpgm8ZiRzPgfmk-34" value="Promo1" style="text;html=1;strokeColor=none;fillColor=none;align=center;verticalAlign=middle;whiteSpace=wrap;rounded=0;" vertex="1" parent="1">
          <mxGeometry x="260" y="1210" width="40" height="20" as="geometry" />
        </mxCell>
        <mxCell id="Z0_54qZpgm8ZiRzPgfmk-35" value="Promo1" style="text;html=1;strokeColor=none;fillColor=none;align=center;verticalAlign=middle;whiteSpace=wrap;rounded=0;" vertex="1" parent="1">
          <mxGeometry x="780" y="1210" width="40" height="20" as="geometry" />
        </mxCell>
        <mxCell id="Z0_54qZpgm8ZiRzPgfmk-36" value="Lo mÃ¡s visto" style="text;html=1;strokeColor=none;fillColor=none;align=center;verticalAlign=middle;whiteSpace=wrap;rounded=0;fontSize=40;" vertex="1" parent="1">
          <mxGeometry x="360" y="1300" width="380" height="20" as="geometry" />
        </mxCell>
        <mxCell id="Z0_54qZpgm8ZiRzPgfmk-38" value="" style="rounded=0;whiteSpace=wrap;html=1;fontSize=40;" vertex="1" parent="1">
          <mxGeometry x="80" y="1360" width="200" height="280" as="geometry" />
        </mxCell>
        <mxCell id="Z0_54qZpgm8ZiRzPgfmk-39" value="" style="verticalLabelPosition=bottom;shadow=0;dashed=0;align=center;html=1;verticalAlign=top;strokeWidth=1;shape=mxgraph.mockup.graphics.simpleIcon;strokeColor=#999999;rounded=0;labelBackgroundColor=none;fontFamily=Verdana;fontSize=14;fontColor=#000000;comic=1;" vertex="1" parent="1">
          <mxGeometry x="90" y="1370" width="180" height="140" as="geometry" />
        </mxCell>
        <mxCell id="Z0_54qZpgm8ZiRzPgfmk-40" value="&lt;div style=&quot;text-align: left&quot;&gt;&lt;span style=&quot;font-size: 14px&quot;&gt;Marca&lt;/span&gt;&lt;/div&gt;Producto 1&lt;br&gt;&lt;br&gt;$99999999" style="text;html=1;strokeColor=none;fillColor=none;align=center;verticalAlign=middle;whiteSpace=wrap;rounded=0;fontSize=20;" vertex="1" parent="1">
          <mxGeometry x="90" y="1544" width="170" height="36" as="geometry" />
        </mxCell>
        <mxCell id="Z0_54qZpgm8ZiRzPgfmk-41" value="" style="rounded=0;whiteSpace=wrap;html=1;fontSize=40;" vertex="1" parent="1">
          <mxGeometry x="320" y="1360" width="200" height="280" as="geometry" />
        </mxCell>
        <mxCell id="Z0_54qZpgm8ZiRzPgfmk-42" value="" style="verticalLabelPosition=bottom;shadow=0;dashed=0;align=center;html=1;verticalAlign=top;strokeWidth=1;shape=mxgraph.mockup.graphics.simpleIcon;strokeColor=#999999;rounded=0;labelBackgroundColor=none;fontFamily=Verdana;fontSize=14;fontColor=#000000;comic=1;" vertex="1" parent="1">
          <mxGeometry x="330" y="1370" width="180" height="140" as="geometry" />
        </mxCell>
        <mxCell id="Z0_54qZpgm8ZiRzPgfmk-43" value="&lt;div style=&quot;text-align: left&quot;&gt;&lt;span style=&quot;font-size: 14px&quot;&gt;Marca&lt;/span&gt;&lt;/div&gt;Producto 1&lt;br&gt;&lt;br&gt;$99999999" style="text;html=1;strokeColor=none;fillColor=none;align=center;verticalAlign=middle;whiteSpace=wrap;rounded=0;fontSize=20;" vertex="1" parent="1">
          <mxGeometry x="330" y="1544" width="170" height="47" as="geometry" />
        </mxCell>
        <mxCell id="Z0_54qZpgm8ZiRzPgfmk-44" value="" style="rounded=0;whiteSpace=wrap;html=1;fontSize=40;" vertex="1" parent="1">
          <mxGeometry x="560" y="1360" width="200" height="280" as="geometry" />
        </mxCell>
        <mxCell id="Z0_54qZpgm8ZiRzPgfmk-45" value="" style="verticalLabelPosition=bottom;shadow=0;dashed=0;align=center;html=1;verticalAlign=top;strokeWidth=1;shape=mxgraph.mockup.graphics.simpleIcon;strokeColor=#999999;rounded=0;labelBackgroundColor=none;fontFamily=Verdana;fontSize=14;fontColor=#000000;comic=1;" vertex="1" parent="1">
          <mxGeometry x="570" y="1370" width="180" height="140" as="geometry" />
        </mxCell>
        <mxCell id="Z0_54qZpgm8ZiRzPgfmk-46" value="&lt;div style=&quot;text-align: left&quot;&gt;&lt;span style=&quot;font-size: 14px&quot;&gt;Marca&lt;/span&gt;&lt;/div&gt;Producto 1&lt;br&gt;&lt;br&gt;$99999999" style="text;html=1;strokeColor=none;fillColor=none;align=center;verticalAlign=middle;whiteSpace=wrap;rounded=0;fontSize=20;" vertex="1" parent="1">
          <mxGeometry x="570" y="1544" width="170" height="47" as="geometry" />
        </mxCell>
        <mxCell id="Z0_54qZpgm8ZiRzPgfmk-47" value="" style="rounded=0;whiteSpace=wrap;html=1;fontSize=40;" vertex="1" parent="1">
          <mxGeometry x="800" y="1360" width="200" height="280" as="geometry" />
        </mxCell>
        <mxCell id="Z0_54qZpgm8ZiRzPgfmk-48" value="" style="verticalLabelPosition=bottom;shadow=0;dashed=0;align=center;html=1;verticalAlign=top;strokeWidth=1;shape=mxgraph.mockup.graphics.simpleIcon;strokeColor=#999999;rounded=0;labelBackgroundColor=none;fontFamily=Verdana;fontSize=14;fontColor=#000000;comic=1;" vertex="1" parent="1">
          <mxGeometry x="810" y="1370" width="180" height="140" as="geometry" />
        </mxCell>
        <mxCell id="Z0_54qZpgm8ZiRzPgfmk-49" value="&lt;div style=&quot;text-align: left&quot;&gt;&lt;span style=&quot;font-size: 14px&quot;&gt;Marca&lt;/span&gt;&lt;/div&gt;Producto 1&lt;br&gt;&lt;br&gt;$99999999" style="text;html=1;strokeColor=none;fillColor=none;align=center;verticalAlign=middle;whiteSpace=wrap;rounded=0;fontSize=20;" vertex="1" parent="1">
          <mxGeometry x="810" y="1544" width="170" height="47" as="geometry" />
        </mxCell>
        <mxCell id="Z0_54qZpgm8ZiRzPgfmk-50" value="" style="triangle;whiteSpace=wrap;html=1;" vertex="1" parent="1">
          <mxGeometry x="1010" y="1450" width="60" height="80" as="geometry" />
        </mxCell>
        <mxCell id="Z0_54qZpgm8ZiRzPgfmk-51" value="" style="triangle;whiteSpace=wrap;html=1;rotation=-180;" vertex="1" parent="1">
          <mxGeometry x="30" y="1450" width="60" height="80" as="geometry" />
        </mxCell>
        <mxCell id="Z0_54qZpgm8ZiRzPgfmk-52" value="" style="rounded=0;whiteSpace=wrap;html=1;fontSize=20;fillColor=#f5f5f5;strokeColor=#666666;fontColor=#333333;" vertex="1" parent="1">
          <mxGeometry x="20" y="1720" width="1080" height="370" as="geometry" />
        </mxCell>
        <mxCell id="677b7b8949515195-8" value="" style="whiteSpace=wrap;html=1;rounded=0;shadow=0;labelBackgroundColor=none;strokeWidth=1;fillColor=none;fontFamily=Verdana;fontSize=12;align=center;comic=1;" parent="1" vertex="1">
          <mxGeometry x="30" y="580" width="200" height="180" as="geometry" />
        </mxCell>
        <mxCell id="Z0_54qZpgm8ZiRzPgfmk-14" value="" style="whiteSpace=wrap;html=1;rounded=0;shadow=0;labelBackgroundColor=none;strokeWidth=1;fillColor=none;fontFamily=Verdana;fontSize=12;align=center;comic=1;" vertex="1" parent="1">
          <mxGeometry x="310" y="580" width="200" height="180" as="geometry" />
        </mxCell>
        <mxCell id="Z0_54qZpgm8ZiRzPgfmk-15" value="" style="whiteSpace=wrap;html=1;rounded=0;shadow=0;labelBackgroundColor=none;strokeWidth=1;fillColor=none;fontFamily=Verdana;fontSize=12;align=center;comic=1;" vertex="1" parent="1">
          <mxGeometry x="870" y="580" width="200" height="180" as="geometry" />
        </mxCell>
        <mxCell id="Z0_54qZpgm8ZiRzPgfmk-16" value="" style="whiteSpace=wrap;html=1;rounded=0;shadow=0;labelBackgroundColor=none;strokeWidth=1;fillColor=none;fontFamily=Verdana;fontSize=12;align=center;comic=1;" vertex="1" parent="1">
          <mxGeometry x="590" y="580" width="200" height="180" as="geometry" />
        </mxCell>
        <mxCell id="Z0_54qZpgm8ZiRzPgfmk-18" value="" style="verticalLabelPosition=bottom;shadow=0;dashed=0;align=center;html=1;verticalAlign=top;strokeWidth=1;shape=mxgraph.mockup.graphics.simpleIcon;strokeColor=#999999;rounded=0;labelBackgroundColor=none;fontFamily=Verdana;fontSize=14;fontColor=#000000;comic=1;" vertex="1" parent="1">
          <mxGeometry x="90" y="600" width="80" height="76" as="geometry" />
        </mxCell>
        <mxCell id="Z0_54qZpgm8ZiRzPgfmk-19" value="" style="verticalLabelPosition=bottom;shadow=0;dashed=0;align=center;html=1;verticalAlign=top;strokeWidth=1;shape=mxgraph.mockup.graphics.simpleIcon;strokeColor=#999999;rounded=0;labelBackgroundColor=none;fontFamily=Verdana;fontSize=14;fontColor=#000000;comic=1;" vertex="1" parent="1">
          <mxGeometry x="370" y="600" width="80" height="76" as="geometry" />
        </mxCell>
        <mxCell id="Z0_54qZpgm8ZiRzPgfmk-20" value="" style="verticalLabelPosition=bottom;shadow=0;dashed=0;align=center;html=1;verticalAlign=top;strokeWidth=1;shape=mxgraph.mockup.graphics.simpleIcon;strokeColor=#999999;rounded=0;labelBackgroundColor=none;fontFamily=Verdana;fontSize=14;fontColor=#000000;comic=1;" vertex="1" parent="1">
          <mxGeometry x="650" y="600" width="80" height="76" as="geometry" />
        </mxCell>
        <mxCell id="Z0_54qZpgm8ZiRzPgfmk-21" value="" style="verticalLabelPosition=bottom;shadow=0;dashed=0;align=center;html=1;verticalAlign=top;strokeWidth=1;shape=mxgraph.mockup.graphics.simpleIcon;strokeColor=#999999;rounded=0;labelBackgroundColor=none;fontFamily=Verdana;fontSize=14;fontColor=#000000;comic=1;" vertex="1" parent="1">
          <mxGeometry x="930" y="600" width="80" height="76" as="geometry" />
        </mxCell>
        <mxCell id="Z0_54qZpgm8ZiRzPgfmk-23" value="&lt;h1&gt;&lt;br&gt;&lt;/h1&gt;&lt;p&gt;Lorem ipsum dolor sit amet, consectetur adipisicing elit, sed do eiusmod tempor incididunt ut labore et dolore magna aliqua.&lt;/p&gt;" style="text;html=1;strokeColor=none;fillColor=none;spacing=5;spacingTop=-20;whiteSpace=wrap;overflow=hidden;rounded=0;" vertex="1" parent="1">
          <mxGeometry x="50" y="640" width="170" height="100" as="geometry" />
        </mxCell>
        <mxCell id="Z0_54qZpgm8ZiRzPgfmk-24" value="&lt;h1&gt;&lt;br&gt;&lt;/h1&gt;&lt;p&gt;Lorem ipsum dolor sit amet, consectetur adipisicing elit, sed do eiusmod tempor incididunt ut labore et dolore magna aliqua.&lt;/p&gt;" style="text;html=1;strokeColor=none;fillColor=none;spacing=5;spacingTop=-20;whiteSpace=wrap;overflow=hidden;rounded=0;" vertex="1" parent="1">
          <mxGeometry x="330" y="640" width="170" height="100" as="geometry" />
        </mxCell>
        <mxCell id="Z0_54qZpgm8ZiRzPgfmk-25" value="&lt;h1&gt;&lt;br&gt;&lt;/h1&gt;&lt;p&gt;Lorem ipsum dolor sit amet, consectetur adipisicing elit, sed do eiusmod tempor incididunt ut labore et dolore magna aliqua.&lt;/p&gt;" style="text;html=1;strokeColor=none;fillColor=none;spacing=5;spacingTop=-20;whiteSpace=wrap;overflow=hidden;rounded=0;" vertex="1" parent="1">
          <mxGeometry x="620" y="640" width="170" height="100" as="geometry" />
        </mxCell>
        <mxCell id="Z0_54qZpgm8ZiRzPgfmk-26" value="&lt;h1&gt;&lt;br&gt;&lt;/h1&gt;&lt;p&gt;Lorem ipsum dolor sit amet, consectetur adipisicing elit, sed do eiusmod tempor incididunt ut labore et dolore magna aliqua.&lt;/p&gt;" style="text;html=1;strokeColor=none;fillColor=none;spacing=5;spacingTop=-20;whiteSpace=wrap;overflow=hidden;rounded=0;" vertex="1" parent="1">
          <mxGeometry x="900" y="640" width="170" height="100" as="geometry" />
        </mxCell>
        <mxCell id="Z0_54qZpgm8ZiRzPgfmk-65" value="" style="verticalLabelPosition=bottom;shadow=0;dashed=0;align=center;html=1;verticalAlign=top;strokeWidth=1;shape=mxgraph.mockup.misc.rating;strokeColor=#999999;fillColor=#ffff00;emptyFillColor=#ffffff;grade=4;ratingScale=5;ratingStyle=star;fontSize=20;" vertex="1" parent="1">
          <mxGeometry x="122" y="1571" width="165" height="10" as="geometry" />
        </mxCell>
        <mxCell id="Z0_54qZpgm8ZiRzPgfmk-69" value="" style="verticalLabelPosition=bottom;shadow=0;dashed=0;align=center;html=1;verticalAlign=top;strokeWidth=1;shape=mxgraph.mockup.misc.rating;strokeColor=#999999;fillColor=#ffff00;emptyFillColor=#ffffff;grade=4;ratingScale=5;ratingStyle=star;fontSize=20;" vertex="1" parent="1">
          <mxGeometry x="366" y="1571" width="94" height="10" as="geometry" />
        </mxCell>
        <mxCell id="Z0_54qZpgm8ZiRzPgfmk-70" value="" style="verticalLabelPosition=bottom;shadow=0;dashed=0;align=center;html=1;verticalAlign=top;strokeWidth=1;shape=mxgraph.mockup.misc.rating;strokeColor=#999999;fillColor=#ffff00;emptyFillColor=#ffffff;grade=4;ratingScale=5;ratingStyle=star;fontSize=20;" vertex="1" parent="1">
          <mxGeometry x="608" y="1571" width="94" height="10" as="geometry" />
        </mxCell>
        <mxCell id="Z0_54qZpgm8ZiRzPgfmk-71" value="" style="verticalLabelPosition=bottom;shadow=0;dashed=0;align=center;html=1;verticalAlign=top;strokeWidth=1;shape=mxgraph.mockup.misc.rating;strokeColor=#999999;fillColor=#ffff00;emptyFillColor=#ffffff;grade=4;ratingScale=5;ratingStyle=star;fontSize=20;" vertex="1" parent="1">
          <mxGeometry x="848" y="1571" width="94" height="10" as="geometry" />
        </mxCell>
        <mxCell id="Z0_54qZpgm8ZiRzPgfmk-72" value="" style="verticalLabelPosition=bottom;shadow=0;dashed=0;align=center;html=1;verticalAlign=top;strokeWidth=1;shape=mxgraph.mockup.navigation.scrollBar;strokeColor=#999999;barPos=20;fillColor2=#99ddff;strokeColor2=none;direction=north;fontSize=20;" vertex="1" parent="1">
          <mxGeometry x="1080" y="210" width="20" height="1450" as="geometry" />
        </mxCell>
        <mxCell id="Z0_54qZpgm8ZiRzPgfmk-74" value="&lt;span style=&quot;font-size: 25px;&quot;&gt;Quienes Somos&lt;/span&gt;&lt;div style=&quot;text-align: left; font-size: 25px;&quot;&gt;&lt;/div&gt;" style="text;html=1;strokeColor=none;fillColor=none;align=center;verticalAlign=middle;whiteSpace=wrap;rounded=0;fontSize=25;fontStyle=1" vertex="1" parent="1">
          <mxGeometry x="848" y="1770" width="210" height="60" as="geometry" />
        </mxCell>
        <mxCell id="Z0_54qZpgm8ZiRzPgfmk-75" value="&lt;span style=&quot;font-size: 25px&quot;&gt;Servicio al cliente&lt;/span&gt;&lt;div style=&quot;text-align: left ; font-size: 25px&quot;&gt;&lt;/div&gt;" style="text;html=1;strokeColor=none;fillColor=none;align=center;verticalAlign=middle;whiteSpace=wrap;rounded=0;fontSize=25;fontStyle=1" vertex="1" parent="1">
          <mxGeometry x="560" y="1770" width="250" height="60" as="geometry" />
        </mxCell>
        <mxCell id="Z0_54qZpgm8ZiRzPgfmk-76" value="&lt;span style=&quot;font-size: 25px&quot;&gt;Mapa del Sitio&lt;/span&gt;&lt;div style=&quot;text-align: left ; font-size: 25px&quot;&gt;&lt;/div&gt;" style="text;html=1;strokeColor=none;fillColor=none;align=center;verticalAlign=middle;whiteSpace=wrap;rounded=0;fontSize=25;fontStyle=1" vertex="1" parent="1">
          <mxGeometry x="280" y="1770" width="250" height="60" as="geometry" />
        </mxCell>
        <mxCell id="Z0_54qZpgm8ZiRzPgfmk-77" value="Sucursales&lt;br&gt;&lt;br&gt;Horarios de AtenciÃ³n&lt;br&gt;&lt;br&gt;Contacto&lt;br&gt;&lt;div style=&quot;font-size: 15px&quot;&gt;&lt;/div&gt;" style="text;html=1;strokeColor=none;fillColor=none;align=left;verticalAlign=middle;whiteSpace=wrap;rounded=0;fontSize=15;fontStyle=0" vertex="1" parent="1">
          <mxGeometry x="580" y="1838" width="160" height="120" as="geometry" />
        </mxCell>
        <mxCell id="Z0_54qZpgm8ZiRzPgfmk-78" value="&lt;div&gt;Sostenibilidad&lt;/div&gt;&lt;div&gt;&lt;br&gt;&lt;/div&gt;&lt;div&gt;Venta Empresas&lt;/div&gt;&lt;div&gt;&lt;br&gt;&lt;/div&gt;&lt;div&gt;RendiciÃ³n de cuentas&lt;/div&gt;&lt;div&gt;&lt;br&gt;&lt;/div&gt;&lt;div&gt;Canal de Integridad&lt;/div&gt;&lt;div&gt;&lt;br&gt;&lt;/div&gt;&lt;div&gt;CÃ³digo de Ã©tica&lt;/div&gt;&lt;div style=&quot;font-size: 15px&quot;&gt;&lt;/div&gt;" style="text;html=1;strokeColor=none;fillColor=none;align=left;verticalAlign=middle;whiteSpace=wrap;rounded=0;fontSize=15;fontStyle=0" vertex="1" parent="1">
          <mxGeometry x="855" y="1830" width="160" height="200" as="geometry" />
        </mxCell>
        <mxCell id="Z0_54qZpgm8ZiRzPgfmk-79" value="GriferÃ­a&lt;br&gt;&lt;br&gt;Sanitarios&lt;br&gt;&lt;br&gt;Pisos&lt;br&gt;&lt;div style=&quot;font-size: 15px&quot;&gt;&lt;/div&gt;" style="text;html=1;strokeColor=none;fillColor=none;align=left;verticalAlign=middle;whiteSpace=wrap;rounded=0;fontSize=15;fontStyle=0" vertex="1" parent="1">
          <mxGeometry x="317" y="1845" width="160" height="120" as="geometry" />
        </mxCell>
        <mxCell id="Z0_54qZpgm8ZiRzPgfmk-80" value="Mosaik 2021 - Todos los derechos reservados.&lt;br&gt;&lt;div style=&quot;font-size: 15px&quot;&gt;&lt;/div&gt;" style="text;html=1;strokeColor=none;fillColor=none;align=center;verticalAlign=middle;whiteSpace=wrap;rounded=0;fontSize=15;fontStyle=0" vertex="1" parent="1">
          <mxGeometry x="40" y="2050" width="1060" height="40" as="geometry" />
        </mxCell>
        <mxCell id="Z0_54qZpgm8ZiRzPgfmk-83" value="" style="dashed=0;outlineConnect=0;html=1;align=center;labelPosition=center;verticalLabelPosition=bottom;verticalAlign=top;shape=mxgraph.webicons.whatsapp;fillColor=#4FE238;gradientColor=#138709;fontSize=15;" vertex="1" parent="1">
          <mxGeometry x="1010" y="2010" width="72.4" height="72.4" as="geometry" />
        </mxCell>
        <mxCell id="Z0_54qZpgm8ZiRzPgfmk-88" value="" style="group" vertex="1" connectable="0" parent="1">
          <mxGeometry x="520" y="2010" width="115" height="34" as="geometry" />
        </mxCell>
        <mxCell id="Z0_54qZpgm8ZiRzPgfmk-82" value="" style="dashed=0;outlineConnect=0;html=1;align=center;labelPosition=center;verticalLabelPosition=bottom;verticalAlign=top;shape=mxgraph.webicons.twitter;fillColor=#49EAF7;gradientColor=#137BD0;fontSize=15;" vertex="1" parent="Z0_54qZpgm8ZiRzPgfmk-88">
          <mxGeometry width="35.689655172413794" height="34" as="geometry" />
        </mxCell>
        <mxCell id="Z0_54qZpgm8ZiRzPgfmk-84" value="" style="dashed=0;outlineConnect=0;html=1;align=center;labelPosition=center;verticalLabelPosition=bottom;verticalAlign=top;shape=mxgraph.webicons.facebook;fillColor=#6294E4;gradientColor=#1A2665;fontSize=15;" vertex="1" parent="Z0_54qZpgm8ZiRzPgfmk-88">
          <mxGeometry x="39.6551724137931" width="35.689655172413794" height="34" as="geometry" />
        </mxCell>
        <mxCell id="Z0_54qZpgm8ZiRzPgfmk-86" value="" style="dashed=0;outlineConnect=0;html=1;align=center;labelPosition=center;verticalLabelPosition=bottom;verticalAlign=top;shape=mxgraph.webicons.rss;fillColor=#FDE532;gradientColor=#F4600D;fontSize=15;" vertex="1" parent="Z0_54qZpgm8ZiRzPgfmk-88">
          <mxGeometry x="79.3103448275862" width="35.689655172413794" height="34" as="geometry" />
        </mxCell>
        <mxCell id="Z0_54qZpgm8ZiRzPgfmk-89" value="LOGO" style="whiteSpace=wrap;html=1;rounded=0;shadow=0;labelBackgroundColor=none;strokeWidth=1;fontFamily=Verdana;fontSize=28;align=center;comic=1;" vertex="1" parent="1">
          <mxGeometry x="70" y="1788" width="190" height="50" as="geometry" />
        </mxCell>
      </root>
    </mxGraphModel>
  </diagram>
</mxfile>
